<?xml version="1.0" standalone="no"?>
<!DOCTYPE svg PUBLIC "-//W3C//DTD SVG 20010904//EN"
 "http://www.w3.org/TR/2001/REC-SVG-20010904/DTD/svg10.dtd">
<svg version="1.0" xmlns="http://www.w3.org/2000/svg"
 width="192.000000pt" height="192.000000pt" viewBox="0 0 192.000000 192.000000"
 preserveAspectRatio="xMidYMid meet">
<metadata>
Created by potrace 1.11, written by Peter Selinger 2001-2013
</metadata>
<g transform="translate(0.000000,192.000000) scale(0.100000,-0.100000)"
fill="#000000" stroke="none">
<path d="M155 1835 l-25 -24 0 -851 0 -851 25 -24 24 -25 776 0 776 0 24 25
25 24 0 851 0 851 -25 24 -24 25 -776 0 -776 0 -24 -25z m1175 -165 l0 -110
-375 0 -375 0 0 110 0 110 375 0 375 0 0 -110z m-830 5 l0 -34 -72 -3 -73 -3
0 -675 0 -675 600 0 600 0 0 675 0 675 -72 3 -73 3 0 34 0 35 110 0 110 0 0
-750 0 -750 -675 0 -675 0 0 750 0 750 110 0 110 0 0 -35z m4 -141 c13 -51 40
-54 453 -53 208 1 389 4 403 8 15 4 31 20 40 38 12 27 21 33 48 33 l32 0 0
-600 0 -600 -525 0 -525 0 0 600 0 600 34 0 c28 0 35 -4 40 -26z"/>
<path d="M910 995 l-185 -185 78 -77 77 -78 187 187 188 188 -75 75 c-41 41
-77 75 -80 75 -3 0 -88 -83 -190 -185z"/>
<path d="M652 658 l3 -73 73 -3 c39 -2 72 1 72 5 0 11 -133 143 -143 143 -4 0
-7 -33 -5 -72z"/>
</g>
</svg>
